# xmcd
#
# Track frame offsets:
#	150
#	23972
#	51787
#	75335
#	101054
#	125268
#	150065
#	176031
#	205718
#	224856
#
# Disc length: 3299 seconds
#
# Revision: 0
# Processed by: cddbd v1.5.1PL2 Copyright (c) Steve Scherf et al.
# Submitted via: EasyCDDAExtractor 8.0.1.1
#
DISCID=7d0ce10a
DTITLE=The Joint Chiefs - Smoke Signals
DYEAR=2006
DGENRE=Blues
TTITLE0=If It Ain't One Thing
TTITLE1=I Got Your Lovin'
TTITLE2=Chillin'
TTITLE3=Home Sweet Home
TTITLE4=Ain't No Love
TTITLE5=KUSH
TTITLE6=Funk You Down
TTITLE7=Yard Bird Adobo
TTITLE8=Pack It Up
TTITLE9=Reflections
EXTD=
EXTT0=
EXTT1=
EXTT2=
EXTT3=
EXTT4=
EXTT5=
EXTT6=
EXTT7=
EXTT8=
EXTT9=
PLAYORDER=
